<mxfile host="app.diagrams.net" agent="Mozilla/5.0 (Windows NT 10.0; Win64; x64) AppleWebKit/537.36 (KHTML, like Gecko) Chrome/128.0.0.0 Safari/537.36" version="24.7.8">
  <diagram name="Trang-1" id="8vCLXsjjelnOkAw3biZU">
    <mxGraphModel dx="1195" dy="643" grid="1" gridSize="10" guides="1" tooltips="1" connect="1" arrows="1" fold="1" page="1" pageScale="1" pageWidth="1169" pageHeight="827" math="0" shadow="0">
      <root>
        <mxCell id="0" />
        <mxCell id="1" parent="0" />
        <mxCell id="Vs9UFH5sFDQ2bHk19n7N-2" style="edgeStyle=orthogonalEdgeStyle;rounded=0;orthogonalLoop=1;jettySize=auto;html=1;exitX=0.5;exitY=1;exitDx=0;exitDy=0;" edge="1" parent="1" source="6mbAxJWy0zSrx9NXerLB-1" target="Vs9UFH5sFDQ2bHk19n7N-1">
          <mxGeometry relative="1" as="geometry">
            <Array as="points">
              <mxPoint x="585" y="302" />
              <mxPoint x="70" y="302" />
            </Array>
          </mxGeometry>
        </mxCell>
        <mxCell id="Vs9UFH5sFDQ2bHk19n7N-4" style="edgeStyle=orthogonalEdgeStyle;rounded=0;orthogonalLoop=1;jettySize=auto;html=1;exitX=0.5;exitY=1;exitDx=0;exitDy=0;" edge="1" parent="1" source="6mbAxJWy0zSrx9NXerLB-1" target="Vs9UFH5sFDQ2bHk19n7N-3">
          <mxGeometry relative="1" as="geometry" />
        </mxCell>
        <mxCell id="Vs9UFH5sFDQ2bHk19n7N-51" style="edgeStyle=orthogonalEdgeStyle;rounded=0;orthogonalLoop=1;jettySize=auto;html=1;exitX=0.5;exitY=1;exitDx=0;exitDy=0;" edge="1" parent="1" source="6mbAxJWy0zSrx9NXerLB-1" target="Vs9UFH5sFDQ2bHk19n7N-5">
          <mxGeometry relative="1" as="geometry" />
        </mxCell>
        <mxCell id="Vs9UFH5sFDQ2bHk19n7N-52" style="edgeStyle=orthogonalEdgeStyle;rounded=0;orthogonalLoop=1;jettySize=auto;html=1;exitX=0.5;exitY=1;exitDx=0;exitDy=0;" edge="1" parent="1" source="6mbAxJWy0zSrx9NXerLB-1" target="Vs9UFH5sFDQ2bHk19n7N-31">
          <mxGeometry relative="1" as="geometry" />
        </mxCell>
        <mxCell id="Vs9UFH5sFDQ2bHk19n7N-53" style="edgeStyle=orthogonalEdgeStyle;rounded=0;orthogonalLoop=1;jettySize=auto;html=1;exitX=0.5;exitY=1;exitDx=0;exitDy=0;" edge="1" parent="1" source="6mbAxJWy0zSrx9NXerLB-1" target="Vs9UFH5sFDQ2bHk19n7N-39">
          <mxGeometry relative="1" as="geometry" />
        </mxCell>
        <mxCell id="Vs9UFH5sFDQ2bHk19n7N-54" style="edgeStyle=orthogonalEdgeStyle;rounded=0;orthogonalLoop=1;jettySize=auto;html=1;exitX=0.5;exitY=1;exitDx=0;exitDy=0;" edge="1" parent="1" source="6mbAxJWy0zSrx9NXerLB-1" target="Vs9UFH5sFDQ2bHk19n7N-47">
          <mxGeometry relative="1" as="geometry" />
        </mxCell>
        <mxCell id="6mbAxJWy0zSrx9NXerLB-1" value="Bộ phận quản lý" style="rounded=0;whiteSpace=wrap;html=1;" parent="1" vertex="1">
          <mxGeometry x="525" y="190" width="120" height="60" as="geometry" />
        </mxCell>
        <mxCell id="Vs9UFH5sFDQ2bHk19n7N-9" style="edgeStyle=orthogonalEdgeStyle;rounded=0;orthogonalLoop=1;jettySize=auto;html=1;exitX=0.25;exitY=1;exitDx=0;exitDy=0;" edge="1" parent="1" source="Vs9UFH5sFDQ2bHk19n7N-1" target="Vs9UFH5sFDQ2bHk19n7N-6">
          <mxGeometry relative="1" as="geometry">
            <Array as="points">
              <mxPoint x="40" y="480" />
            </Array>
          </mxGeometry>
        </mxCell>
        <mxCell id="Vs9UFH5sFDQ2bHk19n7N-10" style="edgeStyle=orthogonalEdgeStyle;rounded=0;orthogonalLoop=1;jettySize=auto;html=1;exitX=0.25;exitY=1;exitDx=0;exitDy=0;" edge="1" parent="1" source="Vs9UFH5sFDQ2bHk19n7N-1" target="Vs9UFH5sFDQ2bHk19n7N-7">
          <mxGeometry relative="1" as="geometry">
            <Array as="points">
              <mxPoint x="40" y="570" />
            </Array>
          </mxGeometry>
        </mxCell>
        <mxCell id="Vs9UFH5sFDQ2bHk19n7N-11" style="edgeStyle=orthogonalEdgeStyle;rounded=0;orthogonalLoop=1;jettySize=auto;html=1;exitX=0.25;exitY=1;exitDx=0;exitDy=0;" edge="1" parent="1" source="Vs9UFH5sFDQ2bHk19n7N-1" target="Vs9UFH5sFDQ2bHk19n7N-8">
          <mxGeometry relative="1" as="geometry">
            <Array as="points">
              <mxPoint x="40" y="660" />
            </Array>
          </mxGeometry>
        </mxCell>
        <mxCell id="Vs9UFH5sFDQ2bHk19n7N-1" value="Bộ phận quản lý hàng hóa" style="rounded=0;whiteSpace=wrap;html=1;" vertex="1" parent="1">
          <mxGeometry x="10" y="354" width="120" height="60" as="geometry" />
        </mxCell>
        <mxCell id="Vs9UFH5sFDQ2bHk19n7N-19" style="edgeStyle=orthogonalEdgeStyle;rounded=0;orthogonalLoop=1;jettySize=auto;html=1;exitX=0.25;exitY=1;exitDx=0;exitDy=0;" edge="1" parent="1" source="Vs9UFH5sFDQ2bHk19n7N-3" target="Vs9UFH5sFDQ2bHk19n7N-12">
          <mxGeometry relative="1" as="geometry">
            <Array as="points">
              <mxPoint x="260" y="480" />
              <mxPoint x="260" y="480" />
            </Array>
          </mxGeometry>
        </mxCell>
        <mxCell id="Vs9UFH5sFDQ2bHk19n7N-20" style="edgeStyle=orthogonalEdgeStyle;rounded=0;orthogonalLoop=1;jettySize=auto;html=1;exitX=0.25;exitY=1;exitDx=0;exitDy=0;entryX=0;entryY=0.5;entryDx=0;entryDy=0;" edge="1" parent="1" source="Vs9UFH5sFDQ2bHk19n7N-3" target="Vs9UFH5sFDQ2bHk19n7N-13">
          <mxGeometry relative="1" as="geometry" />
        </mxCell>
        <mxCell id="Vs9UFH5sFDQ2bHk19n7N-21" style="edgeStyle=orthogonalEdgeStyle;rounded=0;orthogonalLoop=1;jettySize=auto;html=1;exitX=0.25;exitY=1;exitDx=0;exitDy=0;entryX=0;entryY=0.5;entryDx=0;entryDy=0;" edge="1" parent="1" source="Vs9UFH5sFDQ2bHk19n7N-31" target="Vs9UFH5sFDQ2bHk19n7N-14">
          <mxGeometry relative="1" as="geometry" />
        </mxCell>
        <mxCell id="Vs9UFH5sFDQ2bHk19n7N-3" value="Bộ phận quản lý bán hàng" style="rounded=0;whiteSpace=wrap;html=1;" vertex="1" parent="1">
          <mxGeometry x="210" y="354" width="120" height="60" as="geometry" />
        </mxCell>
        <mxCell id="Vs9UFH5sFDQ2bHk19n7N-22" style="edgeStyle=orthogonalEdgeStyle;rounded=0;orthogonalLoop=1;jettySize=auto;html=1;exitX=0.25;exitY=1;exitDx=0;exitDy=0;entryX=0;entryY=0.5;entryDx=0;entryDy=0;" edge="1" parent="1" source="Vs9UFH5sFDQ2bHk19n7N-5" target="Vs9UFH5sFDQ2bHk19n7N-15">
          <mxGeometry relative="1" as="geometry" />
        </mxCell>
        <mxCell id="Vs9UFH5sFDQ2bHk19n7N-23" style="edgeStyle=orthogonalEdgeStyle;rounded=0;orthogonalLoop=1;jettySize=auto;html=1;exitX=0.25;exitY=1;exitDx=0;exitDy=0;entryX=0;entryY=0.5;entryDx=0;entryDy=0;" edge="1" parent="1" source="Vs9UFH5sFDQ2bHk19n7N-5" target="Vs9UFH5sFDQ2bHk19n7N-16">
          <mxGeometry relative="1" as="geometry" />
        </mxCell>
        <mxCell id="Vs9UFH5sFDQ2bHk19n7N-24" style="edgeStyle=orthogonalEdgeStyle;rounded=0;orthogonalLoop=1;jettySize=auto;html=1;exitX=0.25;exitY=1;exitDx=0;exitDy=0;entryX=0;entryY=0.5;entryDx=0;entryDy=0;" edge="1" parent="1" source="Vs9UFH5sFDQ2bHk19n7N-5" target="Vs9UFH5sFDQ2bHk19n7N-17">
          <mxGeometry relative="1" as="geometry" />
        </mxCell>
        <mxCell id="Vs9UFH5sFDQ2bHk19n7N-25" style="edgeStyle=orthogonalEdgeStyle;rounded=0;orthogonalLoop=1;jettySize=auto;html=1;exitX=0.25;exitY=1;exitDx=0;exitDy=0;entryX=0;entryY=0.5;entryDx=0;entryDy=0;" edge="1" parent="1" source="Vs9UFH5sFDQ2bHk19n7N-5" target="Vs9UFH5sFDQ2bHk19n7N-18">
          <mxGeometry relative="1" as="geometry" />
        </mxCell>
        <mxCell id="Vs9UFH5sFDQ2bHk19n7N-5" value="Bộ phận quản lý nhân viên" style="rounded=0;whiteSpace=wrap;html=1;" vertex="1" parent="1">
          <mxGeometry x="415" y="354" width="120" height="60" as="geometry" />
        </mxCell>
        <mxCell id="Vs9UFH5sFDQ2bHk19n7N-6" value="Tổ quản lý kho" style="rounded=0;whiteSpace=wrap;html=1;" vertex="1" parent="1">
          <mxGeometry x="70" y="450" width="120" height="60" as="geometry" />
        </mxCell>
        <mxCell id="Vs9UFH5sFDQ2bHk19n7N-7" value="Tổ quản lý sản phẩm" style="rounded=0;whiteSpace=wrap;html=1;" vertex="1" parent="1">
          <mxGeometry x="70" y="540" width="120" height="60" as="geometry" />
        </mxCell>
        <mxCell id="Vs9UFH5sFDQ2bHk19n7N-8" value="Tổ kiểm soát chất lượng" style="rounded=0;whiteSpace=wrap;html=1;" vertex="1" parent="1">
          <mxGeometry x="70" y="630" width="120" height="60" as="geometry" />
        </mxCell>
        <mxCell id="Vs9UFH5sFDQ2bHk19n7N-12" value="Tổ bán hàng" style="rounded=0;whiteSpace=wrap;html=1;" vertex="1" parent="1">
          <mxGeometry x="270" y="450" width="120" height="60" as="geometry" />
        </mxCell>
        <mxCell id="Vs9UFH5sFDQ2bHk19n7N-13" value="Tổ thu ngân" style="rounded=0;whiteSpace=wrap;html=1;" vertex="1" parent="1">
          <mxGeometry x="270" y="540" width="120" height="60" as="geometry" />
        </mxCell>
        <mxCell id="Vs9UFH5sFDQ2bHk19n7N-14" value="Tổ hỗ trợ khách hàng" style="rounded=0;whiteSpace=wrap;html=1;" vertex="1" parent="1">
          <mxGeometry x="670" y="640" width="120" height="60" as="geometry" />
        </mxCell>
        <mxCell id="Vs9UFH5sFDQ2bHk19n7N-15" value="Tổ tuyển dụng" style="rounded=0;whiteSpace=wrap;html=1;" vertex="1" parent="1">
          <mxGeometry x="475" y="450" width="120" height="60" as="geometry" />
        </mxCell>
        <mxCell id="Vs9UFH5sFDQ2bHk19n7N-16" value="Tổ đào tạo" style="rounded=0;whiteSpace=wrap;html=1;" vertex="1" parent="1">
          <mxGeometry x="475" y="540" width="120" height="60" as="geometry" />
        </mxCell>
        <mxCell id="Vs9UFH5sFDQ2bHk19n7N-17" value="Tổ chấm công và tính lương" style="rounded=0;whiteSpace=wrap;html=1;" vertex="1" parent="1">
          <mxGeometry x="475" y="630" width="120" height="60" as="geometry" />
        </mxCell>
        <mxCell id="Vs9UFH5sFDQ2bHk19n7N-18" value="Tổ quản lý lịch làm việc" style="rounded=0;whiteSpace=wrap;html=1;" vertex="1" parent="1">
          <mxGeometry x="475" y="720" width="120" height="60" as="geometry" />
        </mxCell>
        <mxCell id="Vs9UFH5sFDQ2bHk19n7N-27" style="edgeStyle=orthogonalEdgeStyle;rounded=0;orthogonalLoop=1;jettySize=auto;html=1;exitX=0.25;exitY=1;exitDx=0;exitDy=0;entryX=0;entryY=0.5;entryDx=0;entryDy=0;" edge="1" source="Vs9UFH5sFDQ2bHk19n7N-31" target="Vs9UFH5sFDQ2bHk19n7N-32" parent="1">
          <mxGeometry relative="1" as="geometry" />
        </mxCell>
        <mxCell id="Vs9UFH5sFDQ2bHk19n7N-28" style="edgeStyle=orthogonalEdgeStyle;rounded=0;orthogonalLoop=1;jettySize=auto;html=1;exitX=0.25;exitY=1;exitDx=0;exitDy=0;entryX=0;entryY=0.5;entryDx=0;entryDy=0;" edge="1" source="Vs9UFH5sFDQ2bHk19n7N-31" target="Vs9UFH5sFDQ2bHk19n7N-33" parent="1">
          <mxGeometry relative="1" as="geometry" />
        </mxCell>
        <mxCell id="Vs9UFH5sFDQ2bHk19n7N-31" value="Bộ phận quản lý khách hàng" style="rounded=0;whiteSpace=wrap;html=1;" vertex="1" parent="1">
          <mxGeometry x="610" y="354" width="120" height="60" as="geometry" />
        </mxCell>
        <mxCell id="Vs9UFH5sFDQ2bHk19n7N-32" value="Tổ quản lý thông tin khách hàng" style="rounded=0;whiteSpace=wrap;html=1;" vertex="1" parent="1">
          <mxGeometry x="670" y="450" width="120" height="60" as="geometry" />
        </mxCell>
        <mxCell id="Vs9UFH5sFDQ2bHk19n7N-33" value="Tổ marketing" style="rounded=0;whiteSpace=wrap;html=1;" vertex="1" parent="1">
          <mxGeometry x="670" y="540" width="120" height="60" as="geometry" />
        </mxCell>
        <mxCell id="Vs9UFH5sFDQ2bHk19n7N-37" style="edgeStyle=orthogonalEdgeStyle;rounded=0;orthogonalLoop=1;jettySize=auto;html=1;exitX=0.25;exitY=1;exitDx=0;exitDy=0;entryX=0;entryY=0.5;entryDx=0;entryDy=0;" edge="1" source="Vs9UFH5sFDQ2bHk19n7N-39" target="Vs9UFH5sFDQ2bHk19n7N-40" parent="1">
          <mxGeometry relative="1" as="geometry" />
        </mxCell>
        <mxCell id="Vs9UFH5sFDQ2bHk19n7N-38" style="edgeStyle=orthogonalEdgeStyle;rounded=0;orthogonalLoop=1;jettySize=auto;html=1;exitX=0.25;exitY=1;exitDx=0;exitDy=0;entryX=0;entryY=0.5;entryDx=0;entryDy=0;" edge="1" source="Vs9UFH5sFDQ2bHk19n7N-39" target="Vs9UFH5sFDQ2bHk19n7N-41" parent="1">
          <mxGeometry relative="1" as="geometry" />
        </mxCell>
        <mxCell id="Vs9UFH5sFDQ2bHk19n7N-43" style="edgeStyle=orthogonalEdgeStyle;rounded=0;orthogonalLoop=1;jettySize=auto;html=1;exitX=0.25;exitY=1;exitDx=0;exitDy=0;entryX=0;entryY=0.5;entryDx=0;entryDy=0;" edge="1" parent="1" source="Vs9UFH5sFDQ2bHk19n7N-39" target="Vs9UFH5sFDQ2bHk19n7N-42">
          <mxGeometry relative="1" as="geometry" />
        </mxCell>
        <mxCell id="Vs9UFH5sFDQ2bHk19n7N-39" value="Bộ phận quản lý nhà cung cấp" style="rounded=0;whiteSpace=wrap;html=1;" vertex="1" parent="1">
          <mxGeometry x="810" y="354" width="120" height="60" as="geometry" />
        </mxCell>
        <mxCell id="Vs9UFH5sFDQ2bHk19n7N-40" value="Tổ quản lý đơn hàng" style="rounded=0;whiteSpace=wrap;html=1;" vertex="1" parent="1">
          <mxGeometry x="870" y="450" width="120" height="60" as="geometry" />
        </mxCell>
        <mxCell id="Vs9UFH5sFDQ2bHk19n7N-41" value="Tổ quản lý hợp đồng" style="rounded=0;whiteSpace=wrap;html=1;" vertex="1" parent="1">
          <mxGeometry x="870" y="540" width="120" height="60" as="geometry" />
        </mxCell>
        <mxCell id="Vs9UFH5sFDQ2bHk19n7N-42" value="Tổ kiểm tra hàng hóa" style="rounded=0;whiteSpace=wrap;html=1;" vertex="1" parent="1">
          <mxGeometry x="870" y="630" width="120" height="60" as="geometry" />
        </mxCell>
        <mxCell id="Vs9UFH5sFDQ2bHk19n7N-44" style="edgeStyle=orthogonalEdgeStyle;rounded=0;orthogonalLoop=1;jettySize=auto;html=1;exitX=0.25;exitY=1;exitDx=0;exitDy=0;entryX=0;entryY=0.5;entryDx=0;entryDy=0;" edge="1" source="Vs9UFH5sFDQ2bHk19n7N-47" target="Vs9UFH5sFDQ2bHk19n7N-48" parent="1">
          <mxGeometry relative="1" as="geometry" />
        </mxCell>
        <mxCell id="Vs9UFH5sFDQ2bHk19n7N-45" style="edgeStyle=orthogonalEdgeStyle;rounded=0;orthogonalLoop=1;jettySize=auto;html=1;exitX=0.25;exitY=1;exitDx=0;exitDy=0;entryX=0;entryY=0.5;entryDx=0;entryDy=0;" edge="1" source="Vs9UFH5sFDQ2bHk19n7N-47" target="Vs9UFH5sFDQ2bHk19n7N-49" parent="1">
          <mxGeometry relative="1" as="geometry" />
        </mxCell>
        <mxCell id="Vs9UFH5sFDQ2bHk19n7N-47" value="Bộ phận quản lý tài chính" style="rounded=0;whiteSpace=wrap;html=1;" vertex="1" parent="1">
          <mxGeometry x="989" y="354" width="120" height="60" as="geometry" />
        </mxCell>
        <mxCell id="Vs9UFH5sFDQ2bHk19n7N-48" value="Tổ kế toán, kiểm toán" style="rounded=0;whiteSpace=wrap;html=1;" vertex="1" parent="1">
          <mxGeometry x="1049" y="450" width="120" height="60" as="geometry" />
        </mxCell>
        <mxCell id="Vs9UFH5sFDQ2bHk19n7N-49" value="Tổ phân tích và thống kê" style="rounded=0;whiteSpace=wrap;html=1;" vertex="1" parent="1">
          <mxGeometry x="1049" y="540" width="120" height="60" as="geometry" />
        </mxCell>
      </root>
    </mxGraphModel>
  </diagram>
</mxfile>
